<svg width="238" height="238" viewBox="0 0 238 238" fill="none" xmlns="http://www.w3.org/2000/svg">
<path d="M46.3793 129.492C46.3067 129.373 39.8343 117.721 35.2611 109.876C35.1561 109.608 34.9503 109.391 34.6877 109.273C34.425 109.154 34.1264 109.143 33.8557 109.242C25.3532 110.827 18.0371 112.157 7.02002 114.29C10.433 122.394 7.61502 116.363 16.2211 134.864C16.3485 135.184 16.4758 135.439 16.9232 135.311C20.1826 134.672 23.4421 134.171 26.6991 133.526C32.0696 132.447 45.1643 129.811 46.3793 129.492Z" fill="#FF9619"/>
<path d="M90.273 80.1023C90.0183 80.1023 89.6327 79.6548 89.5708 79.3347C89.1745 77.2927 82.0846 38.701 81.9037 38.0596C81.6324 37.1076 82.0299 36.5126 83.0533 36.3936C86.6233 35.9783 138.001 30.4436 140.942 30.1318C141.58 30.0652 141.974 30.1925 142.156 30.8982C142.698 32.9997 151.347 69.3649 152.059 72.4934C152.107 72.6803 152.112 72.8754 152.073 73.0643C152.034 73.2533 151.954 73.4311 151.837 73.5847C151.721 73.7381 151.571 73.8633 151.399 73.9509C151.227 74.0384 151.038 74.0861 150.845 74.0904C148.289 74.2868 91.1679 80.1654 90.273 80.1023Z" fill="#0F2837"/>
<path d="M47.464 140.226C47.1807 138.246 46.4678 136.744 48.2314 136.202C49.5844 135.784 49.5725 135.817 49.5725 133.518C49.4444 131.001 50.2395 128.525 51.8085 126.553C52.8376 125.057 54.1518 123.779 55.6757 122.792C57.1998 121.806 58.9036 121.13 60.6895 120.803C63.6026 120.189 64.3381 119.803 72.1266 120.738C74.8636 121.067 82.4391 122.6 85.9306 122.655C90.2265 122.725 94.0096 121.214 92.7006 117.096C90.9085 111.428 85.645 109.045 79.9854 105.468C77.1448 103.672 74.7993 102.061 76.8545 99.0141C77.8276 97.6698 79.1243 96.5928 80.6244 95.8832C84.7965 93.696 84.618 93.9661 86.6934 93.646C86.6934 93.5186 86.6934 93.2628 86.8207 93.1997C87.6537 92.5607 87.386 91.7955 87.2039 91.0268C86.8988 89.3077 86.964 87.5434 87.3956 85.8515C87.5236 85.3853 87.7972 84.9723 88.1766 84.6726C88.5559 84.3729 89.021 84.2022 89.5042 84.1855C92.2566 83.9713 152.32 77.6738 154.871 77.3501C155.818 77.192 156.789 77.2538 157.708 77.5307C158.628 77.8077 159.472 78.2923 160.174 78.9471C165.911 83.9986 176.768 92.4357 182.409 97.0934C182.955 97.4446 183.367 97.9706 183.576 98.5858C183.785 99.2005 183.779 99.8689 183.559 100.48C183.289 101.269 183.05 103.982 179.661 104.377C169.373 105.577 127.216 109.79 113.021 111.469C105.554 112.353 97.7355 107.223 92.8946 101.566C91.3133 99.8371 89.9405 97.9285 88.8045 95.8796C88.6771 95.4964 87.8406 95.5535 87.655 95.3679C87.2076 94.6646 86.6328 94.9205 86.058 95.112C82.982 95.8536 80.1992 97.501 78.0696 99.8411C75.7062 102.72 80.5816 104.017 87.0148 108.339C90.5372 110.705 94.3796 114.944 94.2987 119.008C94.2457 119.914 93.9511 120.789 93.4456 121.543C92.9399 122.296 92.2418 122.9 91.4237 123.292C84.6681 126.279 72.8276 121.354 64.5881 121.887C59.471 122.217 55.2238 124.202 52.5761 128.789C51.4745 130.615 50.9405 132.728 51.0423 134.858C51.0423 135.37 51.1695 135.753 51.8085 135.88C53.0235 136.009 53.227 137.028 53.4745 137.989C53.8125 139.326 53.7971 139.298 55.1406 139.14C74.0045 136.935 66.4455 137.493 72.5836 136.903C73.4725 136.888 74.3473 137.126 75.1059 137.589C75.8645 138.053 76.4756 138.722 76.8677 139.521C79.6903 145.686 89.9493 166.009 90.2218 169.359C90.3478 170.094 90.1855 170.849 89.7689 171.468C89.3523 172.087 88.7132 172.521 87.9845 172.681C85.5779 173.701 83.0729 174.472 80.509 174.982C80.3685 175.014 55.4798 180.231 51.629 180.604C50.477 180.715 46.4535 180.924 44.7923 180.029C40.8225 178.788 37.8463 171.725 36.1672 167.891C28.813 151.096 28.932 150.636 28.6273 147.255C28.538 146.472 28.744 145.685 29.205 145.046C29.6659 144.408 30.3486 143.964 31.1192 143.804C35.0105 142.82 38.9089 141.992 42.8122 141.12C45.3076 140.561 47.2319 140.46 47.464 140.226ZM32.0653 152.175C31.9485 152.195 31.838 152.243 31.7421 152.312C31.6462 152.382 31.5675 152.473 31.5121 152.578C31.4566 152.682 31.4258 152.798 31.4221 152.917C31.4184 153.035 31.4418 153.153 31.4905 153.261C33.4814 157.757 42.1612 175.88 42.5444 176.39C43.0204 176.866 87.2718 168.111 87.398 168.084C87.532 168.056 87.658 167.997 87.7665 167.913C87.875 167.829 87.9631 167.722 88.0245 167.6C88.0859 167.477 88.1188 167.342 88.121 167.205C88.1232 167.067 88.0944 166.931 88.037 166.807C85.9283 162.428 78.1968 145.913 77.5649 144.635C77.4877 144.524 77.3814 144.434 77.2575 144.378C77.1336 144.322 76.9968 144.301 76.8616 144.316C71.8755 145.146 38.7102 150.962 32.0653 152.175ZM90.5288 95.7558C91.8526 98.2435 93.5315 100.525 95.5126 102.53C101.657 108.361 108.619 110.431 110.847 110.265C112.89 110.109 174.425 103.452 178.894 102.917C179.627 102.882 180.325 102.596 180.872 102.108C181.418 101.619 181.781 100.958 181.898 100.234C182 99.8481 181.995 99.4415 181.882 99.0581C181.77 98.6749 181.554 98.33 181.26 98.0609C173.814 91.9026 166.353 85.623 158.96 79.404C158.593 79.0472 158.148 78.7807 157.66 78.6254C157.172 78.4701 156.655 78.4303 156.149 78.5092C151.688 79.1672 96.3468 85.0613 90.0184 85.7301C87.8371 85.9598 88.4047 86.5452 88.9319 91.8634C88.989 92.4393 89.315 92.6297 89.8838 92.6297C90.4976 92.6207 91.0997 92.7992 91.6094 93.1414C92.0857 93.6479 92.4358 94.2593 92.6316 94.9264C92.8874 95.4381 92.6316 95.7594 92.0568 95.7594C91.5493 95.8221 91.036 95.8209 90.5288 95.7558Z" fill="#0F2837"/>
<path d="M173.978 51.4772C173.404 49.5601 172.892 47.7073 172.252 45.9187C172.032 43.0945 172.226 40.2532 172.827 37.4852C173.779 37.0092 175.038 39.7331 176.726 41.5097C178.063 42.9187 178.259 44.7049 178.771 46.3661C179.026 47.1991 179.28 47.9631 179.536 48.7937C179.571 48.7977 179.606 48.794 179.639 48.7829C179.673 48.7718 179.703 48.7536 179.728 48.7295C179.601 47.8965 179.089 39.6569 179.089 36.5915C179.089 34.6875 180.528 32.7204 182.348 33.5879C184.094 34.4209 184.241 36.1666 184.52 38.1242C185.863 37.9969 186.031 38.1242 186.305 39.4665C186.58 40.8589 186.58 42.2914 186.305 43.6839C186.173 44.2098 186.002 44.4264 185.667 44.2586C185.538 42.5926 185.155 39.2107 185.09 39.2107C184.975 39.6518 184.89 40.1003 184.836 40.553C185.028 43.5557 185.283 46.5585 185.602 49.5613C185.602 49.7398 185.776 50.6573 186.305 50.3943C187.124 45.6075 188.213 40.8709 189.567 36.2071C189.888 34.9564 190.781 33.7854 192.059 34.2257C192.4 34.4489 192.668 34.7686 192.826 35.144C192.986 35.5195 193.031 35.9338 192.953 36.3344C192.953 36.4618 192.89 36.526 192.89 36.6545C193.209 36.7744 193.482 36.9949 193.666 37.2828C193.851 37.5707 193.937 37.9106 193.911 38.2515C193.944 39.7224 193.944 41.1254 193.911 42.5962C193.899 42.7527 193.831 42.8995 193.719 43.009C193.606 43.1186 193.458 43.1834 193.301 43.1913C193.144 43.1991 192.99 43.1496 192.867 43.0519C192.744 42.9541 192.661 42.815 192.634 42.6605C192.605 42.1874 192.541 41.7173 192.442 41.2539C189.085 58.04 191.478 49.8945 195.509 41.4455C195.864 40.8217 196.293 40.2428 196.787 39.7212C197.278 38.9896 197.835 38.3053 198.453 37.6768C198.546 37.5172 198.676 37.382 198.831 37.282C198.987 37.1819 199.164 37.1198 199.348 37.1008C199.923 37.1008 199.995 37.484 200.05 38.0599C200.203 39.6545 200.434 41.1908 200.626 42.7878C200.732 43.3209 200.55 43.5506 197.047 51.2856C196.788 51.8592 197.047 52.171 197.495 52.4363C198.013 52.7457 198.581 53.0754 199.092 53.33C199.488 53.5343 199.805 53.866 199.99 54.2717C200.176 54.6774 200.219 55.1337 200.114 55.5672C199.611 58.7731 195.401 82.0102 194.939 84.8936C193.812 91.9229 183.54 90.5961 176.601 89.1109C173.115 88.366 173.36 86.2549 172.512 82.5945C172.053 80.6155 166.812 58.3006 165.931 55.1198C165.111 52.1829 170.971 51.3153 173.978 51.4772ZM198.135 56.2693C187.912 58.4423 177.816 58.6338 167.848 55.1198C170.616 68.9559 171.918 72.7234 175.261 85.4648C175.675 87.0463 176.677 86.844 177.241 87.1308C184.939 87.9638 187.934 88.9158 191.362 87.3224C191.842 87.1493 192.267 86.8506 192.593 86.4573C192.92 86.0641 193.134 85.5906 193.214 85.0864C197.907 59.9762 196.469 65.9024 198.128 56.2693H198.135ZM173.662 45.5986C174.167 48.7316 175.022 51.798 176.212 54.7402C176.282 54.8943 176.392 55.0267 176.531 55.1233C177.682 55.3149 178.831 55.4423 180.046 55.5708C179.853 54.7985 176.888 45.3368 176.851 45.2178C176.275 43.7458 173.401 45.2797 173.655 45.5986H173.662ZM197.623 43.7458C197.305 43.81 196.983 44.073 196.665 44.0016C196.408 43.9445 196.218 43.5542 195.962 43.2352C194.237 47.2598 192.129 51.0892 190.595 55.3114C191.744 55.1828 192.703 55.0555 193.661 54.9282C194.127 54.9282 194.184 54.6473 198.198 45.2797C198.409 44.8429 197.972 44.3396 197.616 43.7458H197.623ZM188.359 42.8521C187.464 47.2551 186.693 51.3498 185.803 55.6303C186.698 55.5672 187.273 55.503 187.912 55.503C188.971 55.503 188.369 55.5303 191.106 43.5542C190.141 43.2995 189.245 43.1067 188.352 42.8521H188.359ZM184.525 55.6303C184.122 49.9873 183.844 47.3729 183.692 44.768C183.611 43.3638 183.436 43.102 181.967 43.2352C181.578 43.3203 181.194 43.4268 180.817 43.5542C181.2 47.5799 181.583 51.6057 181.903 55.6303H184.525ZM183.376 41.7073C183.12 39.7271 182.876 37.6161 182.48 35.574C182.233 34.2948 180.946 34.935 180.755 35.2539C180.501 35.6071 180.366 36.0325 180.372 36.4677C180.474 40.7589 180.755 41.1635 180.755 42.2821C181.642 42.0845 182.409 41.8882 183.368 41.7013L183.376 41.7073ZM175.516 42.7938C174.302 40.9409 174.302 40.9409 173.471 41.1968C173.088 44.0718 172.832 43.6244 173.662 43.6244C174.338 43.5036 174.972 43.216 175.508 42.7878L175.516 42.7938ZM197.24 42.1547C198.135 41.6442 198.135 41.6442 199.025 42.9211H199.217C199.154 42.0905 199.09 41.2598 199.025 40.4292C198.691 40.3031 198.35 40.1967 198.003 40.1103C196.785 41.4455 196.785 41.4455 197.233 42.1488L197.24 42.1547Z" fill="#0F2837"/>
<path d="M13.5361 201.884C12.9216 201.972 12.2978 201.972 11.6833 201.884C11.5678 201.858 11.4606 201.803 11.3714 201.726C11.2824 201.647 11.214 201.548 11.1728 201.437C11.1085 201.309 11.3644 201.053 11.4917 200.862C11.7146 200.636 11.9849 200.46 12.2832 200.35C12.5813 200.239 12.9003 200.196 13.2172 200.223C24.4222 198.122 206.406 164.88 226.688 160.928C228.566 160.562 229.708 162.382 228.222 162.713C226.902 163.014 13.6551 201.863 13.5361 201.884Z" fill="#0F2837"/>
<path d="M230.841 168.021C231.063 167.935 231.309 167.933 231.532 168.015C231.755 168.098 231.942 168.259 232.055 168.469C231.927 169.171 231.353 169.302 230.778 169.491C158.307 186.851 21.8139 211.916 15.2617 211.916C15.2617 209.183 58.4623 205.751 230.841 168.021Z" fill="#0F2837"/>
<path d="M45.1643 100.804C43.3793 102.338 38.3337 101.561 36.5392 100.421C35.3085 99.6388 34.3023 98.55 33.619 97.2619C32.9359 95.9737 32.5991 94.53 32.6419 93.0725C32.4575 86.8964 37.7006 84.8472 41.0112 87.6413C41.2671 87.8329 41.5229 88.0888 41.7145 87.6413C42.2229 86.6638 42.9689 85.8297 43.8838 85.2158C44.7987 84.6017 45.8532 84.2274 46.9505 84.1272C53.3884 83.0158 56.6538 82.3482 66.3106 84.1915C69.1904 84.7413 70.7136 87.1939 70.4637 90.3248C70.0577 94.8423 68.2711 99.1255 65.3467 102.593C64.3053 103.899 62.7959 104.747 61.1389 104.958C58.2007 105.41 55.2197 105.517 52.2567 105.277C48.6272 104.975 46.3769 101.843 45.1643 100.804ZM42.6094 89.4311C42.4072 91.7289 42.8032 94.0398 43.7589 96.1391C45.0232 98.6952 46.8339 100.942 49.0628 102.721C49.8706 103.458 50.9112 103.887 52.0032 103.935C55.485 104.204 58.9872 104.011 62.4181 103.361C62.7656 103.258 63.0763 103.058 63.313 102.784C66.7402 99.2491 69.5141 93.8519 69.3189 88.792C69.2083 85.9265 66.2142 85.0566 63.3773 84.6389C57.0512 83.706 43.2258 83.0789 42.6094 89.4311ZM53.1516 84.8936C63.5748 83.8226 70.2555 87.0642 67.528 88.2803C62.668 90.4473 54.557 91.6968 45.2928 89.3025C44.3325 89.055 42.732 87.7556 44.8454 86.5548C46.3115 85.7195 51.3618 85.0769 53.1516 84.8936ZM41.1397 89.9416C41.2183 89.5479 41.1501 89.139 40.9481 88.792C40.5394 88.2904 40.0045 87.9067 39.3984 87.6802C38.7923 87.4537 38.1369 87.3927 37.4993 87.5033C36.8618 87.6138 36.2653 87.8922 35.7709 88.3096C35.2765 88.7271 34.9022 89.2685 34.6864 89.8785C34.2776 90.8293 34.0736 91.8555 34.0874 92.8903C34.1012 93.9252 34.3325 94.9455 34.7664 95.8851C35.2002 96.8247 35.827 97.6625 36.6057 98.3441C37.3846 99.0256 38.298 99.5357 39.2869 99.8411C40.9769 100.513 42.8428 100.603 44.5895 100.096C44.2706 99.6487 43.9505 99.2629 43.6947 98.882C39.9688 100.208 32.7681 93.2724 37.4341 90.0011C37.9577 89.5816 38.6058 89.3482 39.2767 89.3375C39.9476 89.3266 40.6028 89.5392 41.1397 89.9416ZM43.3757 98.4394C42.0645 96.3476 41.3364 93.9433 41.2671 91.4755C41.1643 91.2198 41.0055 90.9905 40.8023 90.8043C40.5991 90.6182 40.3566 90.48 40.0929 90.4001C39.8292 90.3202 39.5509 90.3005 39.2786 90.3424C39.0062 90.3844 38.7467 90.4869 38.5194 90.6425C34.9862 92.6036 39.3714 98.4394 43.3757 98.4394ZM52.4483 86.9392C50.6633 86.0443 47.4646 86.3633 46.4424 87.9614C48.4868 87.5842 50.3372 87.2581 52.4483 86.9392Z" fill="#0F2837"/>
<path d="M86.2489 83.1692C86.5047 85.8526 85.1077 83.5511 85.0351 83.1049C84.6364 80.669 77.093 41.3204 76.792 39.2094C76.502 37.8618 76.6349 36.4576 77.1725 35.1883C77.7099 33.919 78.6259 32.8464 79.7955 32.117C80.4729 31.7696 81.2096 31.5528 81.9673 31.4779C83.6249 31.2007 137.174 26.2003 139.473 26.111C146.643 25.8326 145.978 26.7846 156.404 75.4377C156.404 76.78 155.396 76.329 155.254 75.7566C155.08 75.0498 154.79 74.356 154.615 73.6492C145.35 36.188 145.471 31.397 144.648 29.881C144.325 29.1304 143.777 28.4992 143.077 28.0753C142.379 27.6515 141.566 27.4561 140.751 27.5164C138.834 27.6473 81.7709 32.8714 80.8177 33.4593C78.5877 34.8242 78.5567 36.7746 78.2616 38.5703C78.3259 38.6346 85.6099 79.4635 86.2489 83.1692Z" fill="#0F2837"/>
<path d="M40.6277 131.919C39.164 132.207 33.7257 133.379 32.45 133.645C30.4615 134.06 25.6361 134.769 17.3703 136.584C17.0476 136.681 16.7085 136.712 16.3736 136.673C16.0387 136.636 15.7151 136.529 15.4224 136.363C15.1296 136.196 14.8738 135.971 14.6704 135.702C14.4671 135.434 14.3205 135.126 14.2394 134.799C5.53819 114.132 5.83093 114.747 5.99753 113.581C5.99753 113.187 5.65838 113.366 29.1906 108.854C30.8566 108.536 32.5167 108.23 34.1743 107.832C34.9431 107.647 35.3251 108.087 35.644 108.665C43.5694 122.931 40.3254 117.709 46.2504 127.322C46.7621 128.155 47.156 128.976 47.6558 129.75C47.9831 130.256 47.7189 130.639 47.2096 130.773C46.7669 130.886 42.4829 131.556 40.6277 131.919ZM46.379 129.492C46.3064 129.373 39.834 117.721 35.2608 109.876C35.1558 109.608 34.95 109.392 34.6873 109.273C34.4247 109.155 34.1261 109.143 33.8554 109.242C25.3529 110.826 18.0367 112.157 7.01974 114.289C10.4326 122.395 7.61474 116.363 16.2208 134.863C16.3481 135.184 16.4755 135.439 16.9229 135.311C20.1823 134.672 23.4417 134.171 26.6987 133.526C32.0692 132.447 45.164 129.811 46.379 129.492Z" fill="#0F2837"/>
<path d="M9.76741 77.3504C8.39296 77.6253 7.73727 75.7808 9.12838 75.4333C10.9134 75.2191 77.213 69.4119 79.3479 69.2358C80.2416 69.162 80.5617 69.2989 80.6259 69.9379C80.6902 70.5769 80.4974 70.8971 79.7929 70.8971C77.3998 70.9018 10.1446 77.3504 9.76741 77.3504Z" fill="#0F2837"/>
<path d="M208.862 110.898C205.224 109.907 207.263 110.89 197.872 107.385C195.396 106.342 193.074 104.967 190.97 103.296C190.526 102.99 190.027 102.772 189.501 102.656C189.112 102.603 188.746 102.444 188.443 102.197C188.138 101.95 187.908 101.624 187.776 101.255C187.644 100.886 187.617 100.489 187.695 100.104C187.773 99.7201 187.956 99.3661 188.222 99.0783C189.704 97.3167 191.621 95.9732 193.782 95.181C197.5 93.6138 201.193 94.16 204.835 95.4369C210.272 97.3409 216.998 99.3214 218.639 104.638C218.894 105.615 218.834 106.647 218.466 107.588C218.099 108.528 217.444 109.328 216.594 109.874C212.065 112.37 210.851 111.442 208.862 110.898ZM192.632 103.552C196.64 106.055 201.018 107.909 205.603 109.046C204.858 108.301 206.443 109.243 193.08 103.423C192.559 103.077 192.32 103.394 192.632 103.552ZM196.721 95.2453C194.155 95.8403 190.533 97.4398 189.054 99.5902C188.4 100.542 188.669 101.197 189.822 101.507C195.776 103.049 201.477 105.437 206.753 108.598C209.685 110.077 212.003 111.329 215.826 108.152C217.611 106.672 217.681 105.403 216.465 103.423C215.487 101.757 214.014 100.439 212.249 99.6546C209.248 98.3714 206.18 97.2255 203.048 96.139C201.013 95.4496 198.867 95.1464 196.721 95.2453Z" fill="#0F2837"/>
<path d="M186.435 126.681C186.562 124.252 188.407 123.306 190.524 124.508C190.643 124.579 206.969 133.577 219.724 140.93C220.855 142.17 221.86 143.519 222.726 144.955C223.021 145.401 222.876 145.907 222.152 145.907C216.488 145.279 221.512 147.274 188.096 128.533C187.521 128.022 186.691 127.512 186.435 126.681ZM218.893 141.568L194.803 127.895C194.609 127.731 194.383 127.612 194.139 127.545C193.895 127.478 193.64 127.465 193.39 127.508C193.14 127.551 192.903 127.648 192.694 127.792C192.486 127.935 192.313 128.124 192.185 128.342C191.661 128.971 191.677 129.294 192.376 129.684C203.399 135.789 217.137 143.804 217.424 143.804C217.871 143.102 218.318 142.334 218.893 141.568ZM220.938 143.74L219.98 142.207C218.764 142.717 218.255 143.357 218.314 144.378C219.213 144.251 220.234 144.89 220.938 143.74ZM188.094 127.256C188.604 126.489 189.052 125.787 189.564 125.019C189.409 124.934 189.239 124.881 189.065 124.864C188.889 124.846 188.713 124.866 188.546 124.92C188.379 124.973 188.224 125.062 188.092 125.178C187.96 125.294 187.853 125.435 187.779 125.594C187.33 126.361 187.521 127 188.096 127.256H188.094ZM190.522 128.788C191.16 127.955 191.736 127.319 192.307 126.617C191.856 126.587 191.408 126.718 191.045 126.987C190.682 127.256 190.427 127.646 190.325 128.086C190.332 128.282 190.519 128.597 190.519 128.788H190.522ZM189.243 128.15C189.82 127.198 190.266 126.484 190.65 125.722C189.691 125.913 189.052 126.425 188.984 127.256C189.019 127.567 189.108 127.869 189.245 128.15H189.243Z" fill="#0F2837"/>
<path d="M68.1025 101.762C71.9842 102.437 70.8787 110.509 57.3044 111.346C52.0363 111.67 40.4826 109.604 42.4806 105.469C42.648 104.979 42.9549 104.549 43.3637 104.232C43.7724 103.915 44.2651 103.724 44.7808 103.684C44.6837 103.877 44.5268 104.034 44.3334 104.131C44.0085 104.302 43.7387 104.562 43.5548 104.88C43.3709 105.198 43.2805 105.561 43.2938 105.929C43.3073 106.296 43.4241 106.652 43.6306 106.955C43.8373 107.259 44.1255 107.498 44.4619 107.645C50.2144 111.141 62.037 111.52 67.9751 106.693C68.3002 106.452 68.5726 106.149 68.7757 105.799C68.9788 105.45 69.1083 105.063 69.1561 104.661C69.2039 104.26 69.1691 103.853 69.0538 103.465C68.9385 103.079 68.7452 102.719 68.4856 102.409C68.2941 102.273 68.2298 102.018 68.1025 101.762Z" fill="#0F2837"/>
<path d="M202.025 59.2725C201.097 59.2725 200.919 58.4871 201.578 57.9945C202.662 56.8259 216.537 55.9501 216.657 55.9501C216.98 55.9247 217.298 56.0282 217.544 56.2378C217.789 56.4476 217.941 56.7462 217.967 57.0681C217.992 57.3901 217.889 57.7089 217.679 57.9544C217.469 58.2001 217.171 58.3523 216.849 58.3777C211.929 58.9592 206.98 59.258 202.025 59.2725Z" fill="#0F2837"/>
<path d="M159.536 61.4443C164.534 60.8743 165.36 60.7886 166.053 61.1884C166.185 61.2488 166.295 61.3471 166.369 61.4706C166.444 61.594 166.48 61.737 166.473 61.8812C166.466 62.0255 166.417 62.1644 166.33 62.2801C166.244 62.3958 166.125 62.4831 165.989 62.5308C165.098 62.8548 164.178 63.0904 163.241 63.2341C161.007 63.5101 158.705 63.6815 156.405 63.8088C155.447 63.9362 153.716 62.1083 159.536 61.4443Z" fill="#0F2837"/>
<path d="M178.831 119.908C178.385 119.333 177.879 118.63 176.915 119.013C176.723 119.077 174.787 119.217 174.297 118.374C173.377 116.803 169.859 115.875 168.482 115.756C155.421 114.357 149.522 117.019 143.054 120.676C141.807 121.21 142.712 120.938 138.707 119.526C130.987 116.631 117.935 117.279 105.482 125.212C103.874 126.204 102.501 127.534 101.458 129.11C100.651 130.318 100.041 130.108 98.263 130.895C98.0717 130.938 97.8942 131.029 97.7463 131.157C97.5983 131.286 97.4845 131.45 97.4149 131.632C97.3452 131.816 97.322 132.014 97.3473 132.209C97.3726 132.403 97.4456 132.588 97.5597 132.748C98.5819 134.474 117.112 165.527 118.773 168.402C119.284 169.296 119.667 169.488 120.625 169.296C124.141 168.528 153.749 162.78 160.305 161.374C161.345 161.092 162.424 160.984 163.499 161.053C165.722 161.32 167.963 160.724 169.76 159.387C170.265 159.017 170.863 158.796 171.486 158.749C174.489 158.365 197.491 154.978 199.854 154.659C206.868 153.927 209.286 159.417 178.831 119.908ZM122.221 166.295C121.745 165.819 101.663 132.678 101.583 132.559C102.142 132 100.393 129.643 121.901 165.146C122.588 166.289 122.594 165.922 122.221 166.295ZM132.316 163.1C140.205 159.609 148.68 157.637 157.299 157.286L132.316 163.1ZM134.872 160.799C140.431 157.989 146.245 156.2 152.188 156.455C146.274 157.261 140.466 158.718 134.872 160.799ZM123.818 165.657C116.534 153.772 109.25 141.909 101.966 130.067C112.869 120.785 127.425 117.251 139.729 121.634C141.248 122.159 142.535 123.198 143.37 124.573C153.897 140.706 163.236 154.572 164.518 156.711C149.249 151.983 135.958 156.137 123.818 165.657ZM166.052 156.455C158.577 145.209 151.037 133.837 143.435 122.464C150.596 116.535 165.648 115.868 173.145 118.63C173.712 118.773 197.113 149.313 197.616 150.066C192.221 148.91 186.624 149.108 181.322 150.641C175.989 151.864 170.85 153.821 166.052 156.455ZM192.76 150.961C188.357 151.6 183.687 152.175 179.087 152.813C185.221 151.152 190.971 150.449 192.76 150.961ZM172.953 155.688C172.902 155.614 172.879 155.523 172.889 155.432C174.359 155.05 175.893 154.599 177.489 154.347C180.709 153.858 193.415 151.942 196.721 151.791C197.154 151.797 197.584 151.862 197.999 151.983C189.567 153.261 181.26 154.475 172.953 155.688Z" fill="#0F2837"/>
<path d="M188.096 127.257C186.787 126.674 187.886 124.211 189.501 125.02C189.054 125.783 188.543 126.489 188.096 127.257Z" fill="#FF9619"/>
<path d="M75.6419 168.212C75.5133 168.914 75.129 169.248 74.4911 169.17C71.4792 168.805 75.417 170.539 62.5435 162.909C59.1865 160.919 45.4194 153.499 45.4194 150.961C45.7324 150.648 49.3298 151.199 49.8926 151.535C78.3693 168.736 73.5974 165.658 75.6419 168.212ZM62.2877 161.695C62.6102 162.017 68.5507 165.554 72.8299 168.083C73.2738 168.347 73.4689 168.148 73.7248 167.829C73.9806 167.445 73.7248 167.255 73.4059 167.062C72.204 166.332 65.0342 161.945 62.7351 160.608C62.6084 160.979 62.4589 161.342 62.2877 161.695Z" fill="#0F2837"/>
<path d="M156.212 80.9327C157.381 81.1124 156.569 80.6519 174.167 95.8196C174.831 96.2623 174.345 96.7145 173.911 96.7145C171.484 96.9691 113.659 103.555 111.04 103.934C110.63 104.002 110.211 103.953 109.827 103.795C109.443 103.637 109.111 103.375 108.867 103.04C96.3718 87.8871 95.972 87.9263 96.1517 87.3849C96.655 86.3781 156.072 80.9101 156.212 80.9327ZM107.909 91.9223C107.141 92.0497 106.566 92.177 105.928 92.2413C105.352 92.3698 105.863 92.5614 106.248 92.5614C108.522 91.9295 109.496 93.4265 112.125 96.7145C111.231 96.8418 110.528 96.9061 109.825 97.0334C109.186 97.2892 109.761 97.225 109.825 97.2892C110.441 97.3572 111.061 97.3572 111.677 97.2892C111.997 97.2146 112.33 97.2353 112.636 97.3489C112.944 97.4626 113.21 97.6641 113.403 97.9283C114.012 98.5364 114.651 99.1119 115.321 99.6522C115.512 99.7811 115.703 99.908 115.512 99.4608C114.872 98.7589 114.298 98.0556 113.595 97.3535C113.581 97.3379 113.572 97.3192 113.568 97.2992C113.565 97.2791 113.566 97.2585 113.572 97.2391C113.579 97.2197 113.59 97.2024 113.606 97.1887C113.621 97.1749 113.639 97.1653 113.659 97.1607C114.681 97.0334 119.025 96.4586 121.262 96.267C121.585 96.3105 121.88 96.4694 122.095 96.7145C123.741 98.3602 125.965 100.939 125.29 99.5897C124.395 98.503 123.505 97.3535 122.542 96.267C122.798 96.1385 124.591 95.9731 129.507 95.434C131.745 95.196 132.461 94.9092 133.149 95.6899C133.863 96.5062 134.618 97.2869 135.322 98.1175C135.641 98.628 135.897 98.3733 135.513 97.9259C134.874 96.9667 134.171 96.0731 133.469 95.0509C136.215 94.7307 138.9 94.4118 141.646 94.0917C142.598 94.0917 143.708 96.1897 144.969 97.031L145.161 96.8394C144.459 95.9445 143.819 95.0544 143.116 94.156C142.937 93.799 142.89 94.0227 150.592 93.0052C151.488 92.8862 152.062 92.7506 152.7 93.6443C153.851 95.6899 154.366 96.0088 153.914 94.8593C153.723 94.5391 153.276 93.6443 153.021 93.1338C153.002 93.1007 152.993 93.0635 152.993 93.0257C152.994 92.9879 153.005 92.9509 153.024 92.9185C153.044 92.8859 153.071 92.8593 153.104 92.8408C153.137 92.8225 153.174 92.8131 153.212 92.8136C154.235 92.6863 156.792 92.1865 159.09 91.92C161.199 91.6748 161.844 91.2762 162.603 92.1115C163.183 92.747 163.819 93.3253 164.458 93.9644C164.904 94.4749 165.095 94.3476 164.713 93.7728L162.928 91.5999C162.897 91.5762 162.874 91.543 162.864 91.5056C162.854 91.4682 162.856 91.4284 162.871 91.3923C162.885 91.3563 162.911 91.3259 162.944 91.3058C162.977 91.2857 163.016 91.277 163.054 91.2809L165.227 90.7062C165.738 90.5776 165.483 90.4503 165.164 90.4503C162.175 90.7216 162.413 91.2619 160.818 89.3638C160.119 88.5308 157.623 86.4245 157.24 86.0414C157.447 85.9218 157.66 85.8149 157.879 85.7213C158.327 85.5939 158.327 85.4023 157.688 85.5297C157.327 85.6064 156.952 85.5847 156.602 85.4666C156.474 85.4023 155.516 84.2528 155.196 83.8684C154.813 83.5495 154.813 83.7411 155.004 83.9969L155.837 85.3381C155.856 85.3711 155.865 85.4085 155.865 85.4463C155.864 85.484 155.853 85.521 155.834 85.5535C155.814 85.5859 155.787 85.6127 155.754 85.631C155.721 85.6495 155.683 85.6588 155.646 85.6582C152.962 85.9771 150.342 86.2972 147.722 86.5519C146.869 86.5519 146.532 85.9747 145.614 85.2107C145.358 84.7633 145.167 84.9549 145.487 85.3381C145.805 85.7855 146.061 86.233 146.382 86.6804C146.509 86.9362 146.445 86.9993 146.317 86.9993C145.103 87.2552 142.675 87.3135 141.2 87.511C137.493 88.0084 137.294 88.0941 135.833 86.3603C135.502 85.9884 135.138 85.6464 134.747 85.3381C134.555 85.0834 134.428 85.275 134.555 85.5297C135.131 86.2329 135.833 87.1278 136.473 87.8942C136.486 87.9098 136.494 87.9284 136.498 87.9483C136.502 87.9682 136.5 87.9887 136.494 88.0078C136.487 88.0271 136.476 88.0442 136.461 88.0579C136.446 88.0715 136.428 88.0811 136.408 88.0858C135.45 88.15 131.49 88.344 129.763 88.6606C128.359 88.9188 128.097 88.8521 127.016 87.5753C126.733 87.1635 126.411 86.7784 126.057 86.4245C125.61 85.8498 125.739 86.2972 125.866 86.6161C126.313 87.2552 126.76 87.9585 127.209 88.6606C127.222 88.6899 127.229 88.7216 127.23 88.754C127.231 88.7862 127.225 88.8182 127.213 88.8482C127.201 88.8781 127.183 88.9053 127.16 88.9281C127.137 88.9509 127.11 88.9688 127.08 88.9807C124.14 89.4281 121.279 89.8851 118.393 90.3218C117.338 90.4824 117.704 90.0838 116.029 88.4059L115.836 88.5975C116.221 89.2365 116.669 89.8113 117.179 90.5134C114.687 90.9608 112.258 91.2762 109.831 91.7914C109.474 91.896 109.09 91.8696 108.751 91.7169C108.411 91.5642 108.137 91.2952 107.978 90.9584C106.381 88.9783 106.125 89.1056 106.381 89.4257C106.806 90.3064 107.318 91.1428 107.909 91.9223Z" fill="#FF9619"/>
<path d="M108.676 107.896C108.557 107.777 107.538 106.997 108.802 106.682C111.42 106.362 176.851 98.8863 179.661 98.5674C180.212 98.5674 180.597 99.2446 179.725 99.4608C172.991 100.33 110.028 107.624 108.676 107.896Z" fill="#0F2837"/>
<path d="M89.8901 87.1303C107.373 106.765 107.785 106.212 107.015 106.874C106.566 107.256 106.251 106.806 105.992 106.491C102.651 102.421 88.9321 87.6432 88.9321 87.3849C88.9321 87.1933 88.9274 86.0474 89.8901 87.1303Z" fill="#0F2837"/>
<path d="M117.493 131.346C116.752 131.725 116.038 132.151 115.827 131.602C115.572 130.581 120.962 128.236 121.513 128.023C126.531 126.055 131.915 125.205 137.295 125.531C138.222 125.633 139.141 125.803 140.043 126.042C142.8 127.417 129.634 125.124 117.493 131.346Z" fill="#0F2837"/>
<path d="M140.56 130.323C142.092 130.962 140.622 131.156 140.366 131.156C137.261 131.174 134.17 131.582 131.167 132.37C130.975 132.435 129.441 132.243 130.911 131.537C136.612 129.71 137.871 129.704 140.56 130.323Z" fill="#0F2837"/>
<path d="M166.691 143.677C165.925 142.463 165.158 141.313 164.391 140.163C164.279 140.09 164.153 140.04 164.021 140.019C163.89 139.997 163.755 140.002 163.625 140.034C162.981 140.212 162.282 140.417 161.579 140.546C161.964 139.652 162.857 139.459 163.625 138.948C163.049 137.99 162.538 137.032 161.959 136.01C159.655 136.843 159.793 136.8 159.146 136.584C159.535 136.002 158.853 136.227 161.511 135.115C160.744 133.773 160.042 132.497 159.274 131.153C158.764 131.345 158.252 131.537 157.677 131.728C157.677 130.835 158.443 130.776 158.828 130.388C158.252 129.174 157.677 127.958 157.103 126.681C157.167 126.617 157.133 125.635 158.125 127C159.791 129.293 159.943 129.939 160.425 129.939C162.534 129.492 164.578 128.98 166.687 128.47C164.513 124.509 164.195 123.166 167.453 127.831C167.527 128.047 167.681 128.228 167.882 128.334C168.084 128.441 168.319 128.467 168.539 128.406C170.071 128.257 171.606 128.214 173.268 128.15C173.054 127.765 172.883 127.358 172.757 126.937C171.091 121.761 173.65 126.553 173.65 126.617C174.827 130.145 177.674 127.17 178.886 129.428C177.864 129.365 176.778 129.301 175.5 129.236C176.203 130.323 176.778 131.281 177.417 132.24C177.567 132.538 180.699 132.263 181.634 133.192C180.548 133.767 179.462 133.192 178.248 133.575C178.76 134.408 179.269 135.241 179.845 136.067C179.909 136.196 180.229 136.196 180.483 136.196C181.443 136.258 182.337 136.258 183.295 136.323C183.56 136.379 183.817 136.464 184.062 136.578C184.062 137.043 184.44 136.677 180.611 137.281C181.185 138.24 181.697 139.197 182.336 140.093C182.669 140.426 183.764 140.195 186.361 140.349C186.612 140.349 187.789 140.767 187.448 141.115C186.042 141.242 184.635 141.371 183.164 141.498C183.274 141.978 183.422 142.448 183.61 142.903C185.276 147.504 185.207 147.696 182.777 143.479C182.301 142.843 181.884 141.754 181.244 141.754C179.578 142.01 177.984 142.266 176.261 142.521C176.708 143.606 177.538 145.78 177.793 146.61C178.369 148.143 177.41 146.738 177.346 146.674C175.726 144.379 175.253 142.968 174.535 142.968C172.617 143.351 170.765 143.801 168.848 144.182C169.424 145.204 169.934 146.163 170.445 147.121C170.894 147.824 170.382 147.696 170.126 147.312C169.742 146.865 169.293 146.479 168.912 146.034C168.467 145.521 168.079 144.693 167.571 144.564C166.896 144.341 166.163 144.978 163.993 145.46C164.391 144.508 165.605 144.316 166.691 143.677ZM162.666 134.668C164.71 134.157 166.691 133.581 168.671 133.071C168.161 131.92 167.586 130.835 167.005 129.556C164.897 129.939 162.721 130.389 160.425 130.835C161.261 132.175 161.959 133.454 162.666 134.668ZM165.349 139.459C166.182 140.738 166.947 141.951 167.713 143.103C167.765 143.168 167.836 143.216 167.917 143.239C167.997 143.261 168.082 143.258 168.161 143.23C170.014 142.718 171.931 142.207 173.847 141.633C173.209 140.546 172.57 139.524 171.931 138.501C171.884 138.428 171.817 138.37 171.738 138.337C171.657 138.302 171.569 138.293 171.484 138.31C169.502 138.694 167.522 139.076 165.349 139.459ZM171.1 137.224C170.588 136.329 170.014 135.439 169.502 134.541C169.273 134.082 168.354 134.591 163.177 135.562C163.752 136.584 164.2 137.347 164.71 138.18C164.839 138.309 165.094 138.5 165.286 138.436C167.202 138.054 169.119 137.671 171.1 137.224ZM173.08 137.99C174.715 140.664 175.05 141.441 175.445 141.441C177.111 141.185 178.767 140.865 180.492 140.546C179.917 139.587 179.406 138.694 178.826 137.798C178.646 137.429 178.171 137.464 173.08 137.99ZM168.161 129.428C170.055 132.899 169.485 132.926 171.74 132.687C172.953 132.557 174.167 132.431 175.445 132.303C174.934 131.345 174.437 130.441 173.911 129.62C173.849 129.518 173.766 129.431 173.666 129.365C173.566 129.299 173.454 129.255 173.336 129.236C171.674 129.269 170.014 129.365 168.161 129.428ZM170.653 134.029C171.228 135.05 171.74 135.881 172.319 136.712C172.379 136.79 172.457 136.853 172.545 136.898C172.633 136.942 172.73 136.966 172.829 136.968C174.555 136.776 176.216 136.52 178.005 136.329C175.698 132.877 177.513 133.538 170.653 134.029Z" fill="#0F2837"/>
<path d="M155.446 123.422C155.254 122.847 155.702 122.527 156.15 122.399C162.643 120.007 169.291 120.463 170.525 121.696C171.08 122.252 170.468 122.588 170.079 122.464C165.436 120.986 160.061 122.268 155.446 123.422Z" fill="#0F2837"/>
<path d="M25.6121 111.666C27.6476 111.685 29.6321 112.306 31.3158 113.449C32.9996 114.593 34.3075 116.21 35.075 118.095C35.8425 119.98 36.0353 122.05 35.6291 124.045C35.2229 126.039 34.2359 127.87 32.7922 129.305C31.3486 130.74 29.5129 131.716 27.5158 132.11C25.5188 132.504 23.4498 132.299 21.5691 131.52C19.6884 130.742 18.08 129.424 16.9462 127.734C15.8124 126.043 15.2039 124.055 15.1973 122.019C15.2109 119.267 16.3144 116.632 18.2664 114.692C20.2185 112.751 22.8598 111.663 25.6121 111.666ZM24.0794 120.42C24.0794 120.356 21.9707 116.203 20.8843 113.967C19.8621 114.925 18.9672 115.752 17.945 116.65C20.0537 117.991 24.0152 120.42 24.0794 120.42ZM17.5618 126.616C18.584 127.703 19.4789 128.597 20.4368 129.619C21.7792 127.447 24.3353 123.294 24.3353 123.23C24.1568 123.414 19.8157 125.491 17.5618 126.616ZM17.1144 125.783C19.4789 124.57 23.7593 122.332 23.7593 122.269C21.3317 122.141 18.9041 122.078 16.2837 121.95C16.5408 123.295 16.7954 124.445 17.1144 125.783ZM33.7268 126.485C34.1111 125.208 34.4943 124.058 34.8775 122.844C32.2595 122.717 27.4019 122.524 27.3376 122.588C29.4463 123.869 31.4907 125.148 33.7268 126.489V126.485ZM26.5713 112.812C26.4428 115.43 26.2512 120.288 26.3154 120.288C27.5935 118.244 28.8716 116.199 30.2769 113.963C28.9989 113.584 27.8458 113.199 26.5713 112.812ZM25.1016 120.096C25.1659 120.096 25.4206 115.304 25.5491 112.749C24.271 113.004 23.0572 113.324 21.7792 113.582C22.9287 115.883 24.0152 117.991 25.1016 120.1V120.096ZM33.152 127.38C31.0433 126.039 27.0187 123.611 26.9545 123.675C28.0409 125.719 29.1262 127.764 30.2127 129.936C31.2349 129.115 32.1298 128.282 33.152 127.384V127.38ZM23.3761 121.439C23.3761 121.374 19.5431 118.821 17.4345 117.477C17.0513 118.691 16.6669 119.84 16.2837 121.055C18.8399 121.186 21.1401 121.314 23.3761 121.442V121.439ZM34.1742 118.371C31.9382 119.458 29.8295 120.48 27.7851 121.501C27.7851 121.566 32.4499 121.822 34.9417 121.95C34.6859 120.674 34.43 119.525 34.1742 118.375V118.371ZM29.319 130.384C28.1683 128.211 25.9965 124.185 25.9965 124.185C25.9323 126.422 25.8037 128.723 25.7407 131.15C26.9545 130.9 28.0409 130.643 29.319 130.388V130.384ZM31.1778 114.605C29.8997 116.65 28.6859 118.503 27.4079 120.356C27.4709 120.42 31.4967 118.375 33.6696 117.289C32.7688 116.394 32.0024 115.5 31.1778 114.605ZM24.5959 131.09C24.7875 128.727 24.9791 124.253 24.916 124.253C23.7022 126.106 22.5515 128.023 21.2103 130.067C22.4182 130.45 23.4428 130.77 24.5899 131.09H24.5959Z" fill="#0F2837"/>
<path d="M194.421 96.9694C195.38 96.9694 196.274 96.9064 197.168 96.9694C197.68 97.0337 198.953 98.5033 199.342 98.8223C198.509 98.6949 196.658 98.376 196.529 98.3118C195.891 97.9286 195.251 97.4811 194.421 96.9694Z" fill="#0F2837"/>
<path d="M132.125 94.4144C130.975 94.5417 130.017 94.6774 129.058 94.7976C126.888 95.0701 124.713 95.245 122.54 95.4997C122.284 95.4997 121.902 95.4997 121.774 95.3081C120.623 93.9669 119.474 92.5615 118.196 91.0241C119.538 90.8325 125.359 90.0387 127.014 89.746C127.306 89.6675 127.617 89.6804 127.902 89.7832C128.188 89.8859 128.435 90.0736 128.61 90.3208C129.625 91.6095 130.846 92.9447 132.125 94.4144Z" fill="#FF9619"/>
<path d="M160.814 90.6449C160.844 90.6686 160.866 90.7017 160.876 90.7391C160.887 90.7766 160.884 90.8164 160.87 90.8525C160.855 90.8885 160.829 90.9189 160.797 90.939C160.763 90.9591 160.724 90.9678 160.686 90.9638C159.818 91.0662 156.224 91.6255 152.507 91.923C151.456 91.923 152.2 92.011 148.035 87.639C148.004 87.6153 147.982 87.5822 147.971 87.5447C147.962 87.5072 147.964 87.4674 147.978 87.4314C147.992 87.3953 148.018 87.365 148.052 87.3449C148.085 87.3247 148.124 87.316 148.162 87.3201C156.254 86.2039 156.254 85.9599 156.533 86.2336C158.002 87.7032 159.391 89.1907 160.814 90.6449Z" fill="#FF9619"/>
<path d="M138.003 88.472C140.953 88.1031 144.76 87.7485 146.245 87.514C146.539 87.4579 146.841 87.4817 147.122 87.5829C147.403 87.6839 147.651 87.8588 147.842 88.0888C148.954 89.4097 150.142 90.7068 151.357 92.1146C149.537 92.374 149.804 92.2883 142.731 93.1368C142.463 93.1417 142.198 93.0755 141.964 92.9452C140.622 91.6029 139.346 90.1975 138.003 88.7921V88.472Z" fill="#FF9619"/>
<path d="M141.39 93.3283C139.217 93.5842 137.106 93.7091 135 94.1613C134.267 94.3606 133.487 94.304 132.791 94.0013C132.094 93.6984 131.522 93.1673 131.167 92.4953C130.468 91.5634 129.721 90.6678 128.93 89.8119C128.906 89.7802 128.89 89.743 128.884 89.7037C128.877 89.6644 128.88 89.6242 128.893 89.5865C128.906 89.5488 128.928 89.5147 128.956 89.4872C128.985 89.4597 129.02 89.4396 129.059 89.4287C136.848 88.5957 135.733 88.6695 136.598 88.5957C136.981 88.5957 137.174 88.8492 137.431 89.1062C138.846 90.4208 140.169 91.8315 141.39 93.3283Z" fill="#FF9619"/>
<path d="M109.379 92.3697C111.551 92.0496 112.768 91.8212 115.385 91.4749C116.921 91.2714 117.554 90.6728 118.323 91.9854C119.569 94.1131 120.244 94.1952 121.2 95.628C117.489 96.0397 115.78 96.3265 113.532 96.5229C112.556 96.5229 112.461 96.1206 109.315 92.6244C109.29 92.6093 109.27 92.5865 109.258 92.5592C109.247 92.5319 109.244 92.5016 109.252 92.473C109.259 92.4443 109.275 92.4187 109.299 92.4001C109.321 92.3816 109.349 92.3708 109.379 92.3697Z" fill="#FF9619"/>
</svg>
